# Rhino

mtllib tree 3.mtl
g tree_base
usemtl Plaster
v -31.056966781616211 0.0032387287355959415 20.4410400390625
v -31.056966781616211 8.4735269546508789 20.4410400390625
v -29.926952362060547 0.0032387287355959415 20.4410400390625
v -29.926952362060547 8.4735269546508789 20.4410400390625
v -29.926952362060547 0.0032387287355959415 20.4410400390625
v -29.926952362060547 8.4735269546508789 20.4410400390625
v -29.926952362060547 0.0032387287355959415 19.311025619506836
v -29.926952362060547 8.4735269546508789 19.311025619506836
v -29.926952362060547 0.0032387287355959415 19.311025619506836
v -29.926952362060547 8.4735269546508789 19.311025619506836
v -31.056966781616211 0.0032387287355959415 19.311025619506836
v -31.056966781616211 8.4735269546508789 19.311025619506836
v -31.056966781616211 0.0032387287355959415 19.311025619506836
v -31.056966781616211 8.4735269546508789 19.311025619506836
v -31.056966781616211 0.0032387287355959415 20.4410400390625
v -31.056966781616211 8.4735269546508789 20.4410400390625
v -31.056966781616211 0.0032387287355959415 20.4410400390625
v -29.926952362060547 0.0032387287355959415 20.4410400390625
v -29.926952362060547 0.0032387287355959415 19.311025619506836
v -31.056966781616211 0.0032387287355959415 19.311025619506836
v -31.056966781616211 8.4735269546508789 20.4410400390625
v -29.926952362060547 8.4735269546508789 20.4410400390625
v -29.926952362060547 8.4735269546508789 19.311025619506836
v -31.056966781616211 8.4735269546508789 19.311025619506836
vt 0 0
vt 0 1
vt 0.20833316445350647 0
vt 0.20833316445350647 1
vt 0.20833316445350647 0
vt 0.20833316445350647 1
vt 0.41666632890701294 0
vt 0.41666632890701294 1
vt 0.41666632890701294 0
vt 0.41666632890701294 1
vt 0.62499946355819702 0
vt 0.62499946355819702 1
vt 0.62499946355819702 0
vt 0.62499946355819702 1
vt 0.83333265781402588 0
vt 0.83333265781402588 1
vt 0.83333349227905273 0.13340924680233002
vt 1 0.13340924680233002
vt 1 0
vt 0.83333349227905273 0
vt 0.83333349227905273 0.86659073829650879
vt 1 0.86659073829650879
vt 1 1
vt 0.83333349227905273 1
vn 0 0 1
vn 0 0 1
vn 0 0 1
vn 0 0 1
vn 1 0 0
vn 1 0 0
vn 1 0 0
vn 1 0 0
vn 0 0 -1
vn 0 0 -1
vn 0 0 -1
vn 0 0 -1
vn -1 0 0
vn -1 0 0
vn -1 0 0
vn -1 0 0
vn 0 -1 0
vn 0 -1 0
vn 0 -1 0
vn 0 -1 0
vn 0 1 0
vn 0 1 0
vn 0 1 0
vn 0 1 0
f 1/1/1 3/3/3 4/4/4 2/2/2
f 5/5/5 7/7/7 8/8/8 6/6/6
f 9/9/9 11/11/11 12/12/12 10/10/10
f 13/13/13 15/15/15 16/16/16 14/14/14
f 18/18/18 17/17/17 20/20/20
f 20/20/20 19/19/19 18/18/18
f 22/22/22 24/24/24 21/21/21
f 24/24/24 22/22/22 23/23/23
g leaves1
usemtl Plaster (1)
v -30.295639038085938 8.9543495178222656 16.272499084472656
v -25.498256683349609 13.68541145324707 16.272499084472656
v -35.220584869384766 13.948332786560059 16.272499084472656
v -30.423200607299805 18.67939567565918 16.272499084472656
v -35.220584869384766 13.948332786560059 16.272499084472656
v -30.423200607299805 18.67939567565918 16.272499084472656
v -35.220584869384766 13.948332786560059 23.010292053222656
v -30.423200607299805 18.67939567565918 23.010292053222656
v -35.220584869384766 13.948332786560059 23.010292053222656
v -30.423200607299805 18.67939567565918 23.010292053222656
v -30.295639038085938 8.9543495178222656 23.010292053222656
v -25.498256683349609 13.68541145324707 23.010292053222656
v -30.295639038085938 8.9543495178222656 23.010292053222656
v -25.498256683349609 13.68541145324707 23.010292053222656
v -30.295639038085938 8.9543495178222656 16.272499084472656
v -25.498256683349609 13.68541145324707 16.272499084472656
v -30.295639038085938 8.9543495178222656 16.272499084472656
v -35.220584869384766 13.948332786560059 16.272499084472656
v -35.220584869384766 13.948332786560059 23.010292053222656
v -30.295639038085938 8.9543495178222656 23.010292053222656
v -25.498256683349609 13.68541145324707 16.272499084472656
v -30.423200607299805 18.67939567565918 16.272499084472656
v -30.423200607299805 18.67939567565918 23.010292053222656
v -25.498256683349609 13.68541145324707 23.010292053222656
vt 0 0
vt 0 0.66666620969772339
vt 0.27615815401077271 0
vt 0.27615815401077271 0.66666620969772339
vt 0.27615815401077271 0
vt 0.27615815401077271 0.66666620969772339
vt 0.5 0
vt 0.5 0.66666620969772339
vt 0.5 0
vt 0.5 0.66666620969772339
vt 0.77615815401077271 0
vt 0.77615815401077271 0.66666620969772339
vt 0.77615815401077271 0
vt 0.77615815401077271 0.66666620969772339
vt 1 0
vt 1 0.66666620969772339
vt 0 1
vt 0.25501972436904907 1
vt 0.25501972436904907 0.66666686534881592
vt 0 0.66666686534881592
vt 0.74498027563095093 0.66666686534881592
vt 1 0.66666686534881592
vt 1 1
vt 0.74498027563095093 1
vn 0 0 -1
vn 0 0 -1
vn 0 0 -1
vn 0 0 -1
vn -0.7021680474281311 0.71201127767562866 0
vn -0.7021680474281311 0.71201127767562866 0
vn -0.7021680474281311 0.71201127767562866 0
vn -0.7021680474281311 0.71201127767562866 0
vn 0 0 1
vn 0 0 1
vn 0 0 1
vn 0 0 1
vn 0.7021680474281311 -0.71201127767562866 0
vn 0.7021680474281311 -0.71201127767562866 0
vn 0.7021680474281311 -0.71201127767562866 0
vn 0.7021680474281311 -0.71201127767562866 0
vn -0.71201127767562866 -0.7021680474281311 0
vn -0.71201127767562866 -0.7021680474281311 0
vn -0.71201127767562866 -0.7021680474281311 0
vn -0.71201127767562866 -0.7021680474281311 0
vn 0.71201127767562866 0.7021680474281311 0
vn 0.71201127767562866 0.7021680474281311 0
vn 0.71201127767562866 0.7021680474281311 0
vn 0.71201127767562866 0.7021680474281311 0
f 25/25/25 27/27/27 28/28/28 26/26/26
f 29/29/29 31/31/31 32/32/32 30/30/30
f 33/33/33 35/35/35 36/36/36 34/34/34
f 37/37/37 39/39/39 40/40/40 38/38/38
f 42/42/42 41/41/41 44/44/44
f 44/44/44 43/43/43 42/42/42
f 46/46/46 48/48/48 45/45/45
f 48/48/48 46/46/46 47/47/47
usemtl Plaster (1)
v -32.696491241455078 4.5534443855285645 17.214126586914063
v -29.304227828979492 9.2845067977905273 13.821863174438477
v -36.178951263427734 9.5474281311035156 20.696588516235352
v -32.786689758300781 14.278491020202637 17.304325103759766
v -36.178951263427734 9.5474281311035156 20.696588516235352
v -32.786689758300781 14.278491020202637 17.304325103759766
v -31.414613723754883 9.5474281311035156 25.460926055908203
v -28.022350311279297 14.278491020202637 22.06866455078125
v -31.414613723754883 9.5474281311035156 25.460926055908203
v -28.022350311279297 14.278491020202637 22.06866455078125
v -27.932151794433594 4.5534443855285645 21.978466033935547
v -24.539888381958008 9.2845067977905273 18.586202621459961
v -27.932151794433594 4.5534443855285645 21.978466033935547
v -24.539888381958008 9.2845067977905273 18.586202621459961
v -32.696491241455078 4.5534443855285645 17.214126586914063
v -29.304227828979492 9.2845067977905273 13.821863174438477
v -32.696491241455078 4.5534443855285645 17.214126586914063
v -36.178951263427734 9.5474281311035156 20.696588516235352
v -31.414613723754883 9.5474281311035156 25.460926055908203
v -27.932151794433594 4.5534443855285645 21.978466033935547
v -29.304227828979492 9.2845067977905273 13.821863174438477
v -32.786689758300781 14.278491020202637 17.304325103759766
v -28.022350311279297 14.278491020202637 22.06866455078125
v -24.539888381958008 9.2845067977905273 18.586202621459961
vt 0 0
vt 0 0.66666620969772339
vt 0.27615815401077271 0
vt 0.27615815401077271 0.66666620969772339
vt 0.27615815401077271 0
vt 0.27615815401077271 0.66666620969772339
vt 0.5 0
vt 0.5 0.66666620969772339
vt 0.5 0
vt 0.5 0.66666620969772339
vt 0.77615815401077271 0
vt 0.77615815401077271 0.66666620969772339
vt 0.77615815401077271 0
vt 0.77615815401077271 0.66666620969772339
vt 1 0
vt 1 0.66666620969772339
vt 0 1
vt 0.25501972436904907 1
vt 0.25501972436904907 0.66666686534881592
vt 0 0.66666686534881592
vt 0.74498027563095093 0.66666686534881592
vt 1 0.66666686534881592
vt 1 1
vt 0.74498027563095093 1
vn -0.70710676908493042 0 -0.70710676908493042
vn -0.70710676908493042 0 -0.70710676908493042
vn -0.70710676908493042 0 -0.70710676908493042
vn -0.70710676908493042 0 -0.70710676908493042
vn -0.49650779366493225 0.71201127767562866 0.49650779366493225
vn -0.49650779366493225 0.71201127767562866 0.49650779366493225
vn -0.49650779366493225 0.71201127767562866 0.49650779366493225
vn -0.49650779366493225 0.71201127767562866 0.49650779366493225
vn 0.70710676908493042 0 0.70710676908493042
vn 0.70710676908493042 0 0.70710676908493042
vn 0.70710676908493042 0 0.70710676908493042
vn 0.70710676908493042 0 0.70710676908493042
vn 0.49650779366493225 -0.71201127767562866 -0.49650779366493225
vn 0.49650779366493225 -0.71201127767562866 -0.49650779366493225
vn 0.49650779366493225 -0.71201127767562866 -0.49650779366493225
vn 0.49650779366493225 -0.71201127767562866 -0.49650779366493225
vn -0.50346797704696655 -0.7021680474281311 0.50346797704696655
vn -0.50346797704696655 -0.7021680474281311 0.50346797704696655
vn -0.50346797704696655 -0.7021680474281311 0.50346797704696655
vn -0.50346797704696655 -0.7021680474281311 0.50346797704696655
vn 0.50346797704696655 0.7021680474281311 -0.50346797704696655
vn 0.50346797704696655 0.7021680474281311 -0.50346797704696655
vn 0.50346797704696655 0.7021680474281311 -0.50346797704696655
vn 0.50346797704696655 0.7021680474281311 -0.50346797704696655
f 49/49/49 51/51/51 52/52/52 50/50/50
f 53/53/53 55/55/55 56/56/56 54/54/54
f 57/57/57 59/59/59 60/60/60 58/58/58
f 61/61/61 63/63/63 64/64/64 62/62/62
f 66/66/66 65/65/65 68/68/68
f 68/68/68 67/67/67 66/66/66
f 70/70/70 72/72/72 69/69/69
f 72/72/72 70/70/70 71/71/71
usemtl Plaster (1)
v -30.295639038085938 13.097548484802246 13.820902824401855
v -25.498256683349609 16.442914962768555 17.166269302368164
v -35.220584869384766 16.628828048706055 17.352182388305664
v -30.423200607299805 19.97419548034668 20.697547912597656
v -35.220584869384766 16.628828048706055 17.352182388305664
v -30.423200607299805 19.97419548034668 20.697547912597656
v -35.220584869384766 11.864489555358887 22.116521835327148
v -30.423200607299805 15.209856033325195 25.461887359619141
v -35.220584869384766 11.864489555358887 22.116521835327148
v -30.423200607299805 15.209856033325195 25.461887359619141
v -30.295639038085938 8.3332099914550781 18.585241317749023
v -25.498256683349609 11.678576469421387 21.930606842041016
v -30.295639038085938 8.3332099914550781 18.585241317749023
v -25.498256683349609 11.678576469421387 21.930606842041016
v -30.295639038085938 13.097548484802246 13.820902824401855
v -25.498256683349609 16.442914962768555 17.166269302368164
v -30.295639038085938 13.097548484802246 13.820902824401855
v -35.220584869384766 16.628828048706055 17.352182388305664
v -35.220584869384766 11.864489555358887 22.116521835327148
v -30.295639038085938 8.3332099914550781 18.585241317749023
v -25.498256683349609 16.442914962768555 17.166269302368164
v -30.423200607299805 19.97419548034668 20.697547912597656
v -30.423200607299805 15.209856033325195 25.461887359619141
v -25.498256683349609 11.678576469421387 21.930606842041016
vt 0 0
vt 0 0.66666620969772339
vt 0.27615815401077271 0
vt 0.27615815401077271 0.66666620969772339
vt 0.27615815401077271 0
vt 0.27615815401077271 0.66666620969772339
vt 0.5 0
vt 0.5 0.66666620969772339
vt 0.5 0
vt 0.5 0.66666620969772339
vt 0.77615815401077271 0
vt 0.77615815401077271 0.66666620969772339
vt 0.77615815401077271 0
vt 0.77615815401077271 0.66666620969772339
vt 1 0
vt 1 0.66666620969772339
vt 0 1
vt 0.25501972436904907 1
vt 0.25501972436904907 0.66666686534881592
vt 0 0.66666686534881592
vt 0.74498027563095093 0.66666686534881592
vt 1 0.66666686534881592
vt 1 1
vt 0.74498027563095093 1
vn 0 0.70710676908493042 -0.70710676908493042
vn 0 0.70710676908493042 -0.70710676908493042
vn 0 0.70710676908493042 -0.70710676908493042
vn 0 0.70710676908493042 -0.70710676908493042
vn -0.7021680474281311 0.50346797704696655 0.50346797704696655
vn -0.7021680474281311 0.50346797704696655 0.50346797704696655
vn -0.7021680474281311 0.50346797704696655 0.50346797704696655
vn -0.7021680474281311 0.50346797704696655 0.50346797704696655
vn 0 -0.70710676908493042 0.70710676908493042
vn 0 -0.70710676908493042 0.70710676908493042
vn 0 -0.70710676908493042 0.70710676908493042
vn 0 -0.70710676908493042 0.70710676908493042
vn 0.7021680474281311 -0.50346797704696655 -0.50346797704696655
vn 0.7021680474281311 -0.50346797704696655 -0.50346797704696655
vn 0.7021680474281311 -0.50346797704696655 -0.50346797704696655
vn 0.7021680474281311 -0.50346797704696655 -0.50346797704696655
vn -0.71201127767562866 -0.49650779366493225 -0.49650779366493225
vn -0.71201127767562866 -0.49650779366493225 -0.49650779366493225
vn -0.71201127767562866 -0.49650779366493225 -0.49650779366493225
vn -0.71201127767562866 -0.49650779366493225 -0.49650779366493225
vn 0.71201127767562866 0.49650779366493225 0.49650779366493225
vn 0.71201127767562866 0.49650779366493225 0.49650779366493225
vn 0.71201127767562866 0.49650779366493225 0.49650779366493225
vn 0.71201127767562866 0.49650779366493225 0.49650779366493225
f 73/73/73 75/75/75 76/76/76 74/74/74
f 77/77/77 79/79/79 80/80/80 78/78/78
f 81/81/81 83/83/83 84/84/84 82/82/82
f 85/85/85 87/87/87 88/88/88 86/86/86
f 90/90/90 89/89/89 92/92/92
f 92/92/92 91/91/91 90/90/90
f 94/94/94 96/96/96 93/93/93
f 96/96/96 94/94/94 95/95/95
usemtl Plaster (1)
v -27.994733810424805 4.8036179542541504 17.364582061767578
v -24.689931869506836 9.4127006530761719 20.669382095336914
v -31.387407302856445 9.6688432693481445 13.971907615661621
v -28.082605361938477 14.277925491333008 17.276708602905273
v -31.387407302856445 9.6688432693481445 13.971907615661621
v -28.082605361938477 14.277925491333008 17.276708602905273
v -36.028907775878906 9.6688432693481445 18.613407135009766
v -32.724105834960938 14.277925491333008 21.918209075927734
v -36.028907775878906 9.6688432693481445 18.613407135009766
v -32.724105834960938 14.277925491333008 21.918209075927734
v -32.636234283447266 4.8036179542541504 22.006082534790039
v -29.331432342529297 9.4127006530761719 25.310882568359375
v -32.636234283447266 4.8036179542541504 22.006082534790039
v -29.331432342529297 9.4127006530761719 25.310882568359375
v -27.994733810424805 4.8036179542541504 17.364582061767578
v -24.689931869506836 9.4127006530761719 20.669382095336914
v -27.994733810424805 4.8036179542541504 17.364582061767578
v -31.387407302856445 9.6688432693481445 13.971907615661621
v -36.028907775878906 9.6688432693481445 18.613407135009766
v -32.636234283447266 4.8036179542541504 22.006082534790039
v -24.689931869506836 9.4127006530761719 20.669382095336914
v -28.082605361938477 14.277925491333008 17.276708602905273
v -32.724105834960938 14.277925491333008 21.918209075927734
v -29.331432342529297 9.4127006530761719 25.310882568359375
vt 0 0
vt 0 0.66666620969772339
vt 0.27615815401077271 0
vt 0.27615815401077271 0.66666620969772339
vt 0.27615815401077271 0
vt 0.27615815401077271 0.66666620969772339
vt 0.5 0
vt 0.5 0.66666620969772339
vt 0.5 0
vt 0.5 0.66666620969772339
vt 0.77615815401077271 0
vt 0.77615815401077271 0.66666620969772339
vt 0.77615815401077271 0
vt 0.77615815401077271 0.66666620969772339
vt 1 0
vt 1 0.66666620969772339
vt 0 1
vt 0.25501972436904907 1
vt 0.25501972436904907 0.66666686534881592
vt 0 0.66666686534881592
vt 0.74498027563095093 0.66666686534881592
vt 1 0.66666686534881592
vt 1 1
vt 0.74498027563095093 1
vn 0.70710676908493042 0 -0.70710676908493042
vn 0.70710676908493042 0 -0.70710676908493042
vn 0.70710676908493042 0 -0.70710676908493042
vn 0.70710676908493042 0 -0.70710676908493042
vn -0.49650779366493225 0.71201127767562866 -0.49650779366493225
vn -0.49650779366493225 0.71201127767562866 -0.49650779366493225
vn -0.49650779366493225 0.71201127767562866 -0.49650779366493225
vn -0.49650779366493225 0.71201127767562866 -0.49650779366493225
vn -0.70710676908493042 0 0.70710676908493042
vn -0.70710676908493042 0 0.70710676908493042
vn -0.70710676908493042 0 0.70710676908493042
vn -0.70710676908493042 0 0.70710676908493042
vn 0.49650779366493225 -0.71201127767562866 0.49650779366493225
vn 0.49650779366493225 -0.71201127767562866 0.49650779366493225
vn 0.49650779366493225 -0.71201127767562866 0.49650779366493225
vn 0.49650779366493225 -0.71201127767562866 0.49650779366493225
vn -0.50346797704696655 -0.7021680474281311 -0.50346797704696655
vn -0.50346797704696655 -0.7021680474281311 -0.50346797704696655
vn -0.50346797704696655 -0.7021680474281311 -0.50346797704696655
vn -0.50346797704696655 -0.7021680474281311 -0.50346797704696655
vn 0.50346797704696655 0.7021680474281311 0.50346797704696655
vn 0.50346797704696655 0.7021680474281311 0.50346797704696655
vn 0.50346797704696655 0.7021680474281311 0.50346797704696655
vn 0.50346797704696655 0.7021680474281311 0.50346797704696655
f 97/97/97 99/99/99 100/100/100 98/98/98
f 101/101/101 103/103/103 104/104/104 102/102/102
f 105/105/105 107/107/107 108/108/108 106/106/106
f 109/109/109 111/111/111 112/112/112 110/110/110
f 114/114/114 113/113/113 116/116/116
f 116/116/116 115/115/115 114/114/114
f 118/118/118 120/120/120 117/117/117
f 120/120/120 118/118/118 119/119/119
