# Rhino

mtllib playerfoot.mtl
g Default
usemtl diffuse_0
v 44.760749816894531 0.02713717520236969 21.677200317382813
v 44.920181274414063 0.02713717520236969 21.86976432800293
v 44.654685974121094 0.16023077070713043 21.765016555786133
v 44.814117431640625 0.16023077070713043 21.95758056640625
v 44.428825378417969 0.16374418139457703 21.952018737792969
v 44.588260650634766 0.16374418139457703 22.144582748413086
v 44.121837615966797 -0.040474385023117065 22.206192016601563
v 44.281272888183594 -0.040474385023117065 22.39875602722168
v 44.121837615966797 -0.064167000353336334 22.206192016601563
v 44.281272888183594 -0.064167000353336334 22.39875602722168
v 44.121837615966797 -0.064167000353336334 22.206192016601563
v 44.281272888183594 -0.064167000353336334 22.39875602722168
v 44.760749816894531 -0.064167000353336334 21.677200317382813
v 44.920181274414063 -0.064167000353336334 21.86976432800293
v 44.760749816894531 -0.064167000353336334 21.677200317382813
v 44.920181274414063 -0.064167000353336334 21.86976432800293
v 44.760749816894531 0.02713717520236969 21.677200317382813
v 44.920181274414063 0.02713717520236969 21.86976432800293
v 44.760749816894531 0.02713717520236969 21.677200317382813
v 44.654685974121094 0.16023077070713043 21.765016555786133
v 44.428825378417969 0.16374418139457703 21.952018737792969
v 44.121837615966797 -0.040474385023117065 22.206192016601563
v 44.121837615966797 -0.064167000353336334 22.206192016601563
v 44.760749816894531 -0.064167000353336334 21.677200317382813
v 44.920181274414063 0.02713717520236969 21.86976432800293
v 44.814117431640625 0.16023077070713043 21.95758056640625
v 44.588260650634766 0.16374418139457703 22.144582748413086
v 44.281272888183594 -0.040474385023117065 22.39875602722168
v 44.281272888183594 -0.064167000353336334 22.39875602722168
v 44.920181274414063 -0.064167000353336334 21.86976432800293
vt 0 0
vt 0 0.67709791660308838
vt 0.12200012803077698 0
vt 0.12200012803077698 0.67709791660308838
vt 0.24400025606155396 0
vt 0.24400025606155396 0.67709791660308838
vt 0.48800051212310791 0
vt 0.48800051212310791 0.67709791660308838
vt 0.55214583873748779 0
vt 0.55214583873748779 0.67709791660308838
vt 0.55214583873748779 0
vt 0.55214583873748779 0.67709791660308838
vt 0.90693557262420654 0
vt 0.90693557262420654 0.67709791660308838
vt 0.90693557262420654 0
vt 0.90693557262420654 0.67709791660308838
vt 1 0
vt 1 0.67709791660308838
vt 0.44190385937690735 0.87064152956008911
vt 0.36854457855224609 0.68207633495330811
vt 0.21232834458351135 0.67709857225418091
vt 0 0.96643263101577759
vt 0 1
vt 0.44190385937690735 1
vt 0.44190385937690735 0.80645710229873657
vt 0.36854457855224609 0.9950222373008728
vt 0.21232834458351135 1
vt 0 0.7106660008430481
vt 0 0.67709857225418091
vt 0.44190385937690735 0.67709857225418091
vn 0.77025383710861206 0 -0.63773739337921143
vn 0.77025383710861206 0 -0.63773739337921143
vn 0.15737913548946381 0.97890388965606689 -0.13030321896076202
vn 0.15737913548946381 0.97890388965606689 -0.13030321896076202
vn -0.066914387047290802 0.99621939659118652 0.055402263998985291
vn -0.066914387047290802 0.99621939659118652 0.055402263998985291
vn -0.77025383710861206 0 0.63773739337921143
vn -0.77025383710861206 0 0.63773739337921143
vn -0.77025383710861206 0 0.63773739337921143
vn -0.77025383710861206 0 0.63773739337921143
vn 0 -1 0
vn 0 -1 0
vn 0 -1 0
vn 0 -1 0
vn 0.77025383710861206 0 -0.63773739337921143
vn 0.77025383710861206 0 -0.63773739337921143
vn 0.77025383710861206 0 -0.63773739337921143
vn 0.77025383710861206 0 -0.63773739337921143
vn -0.63773739337921143 0 -0.77025383710861206
vn -0.63773739337921143 0 -0.77025383710861206
vn -0.63773739337921143 0 -0.77025383710861206
vn -0.63773739337921143 0 -0.77025383710861206
vn -0.63773739337921143 0 -0.77025383710861206
vn -0.63773739337921143 0 -0.77025383710861206
vn 0.63773739337921143 0 0.77025383710861206
vn 0.63773739337921143 0 0.77025383710861206
vn 0.63773739337921143 0 0.77025383710861206
vn 0.63773739337921143 0 0.77025383710861206
vn 0.63773739337921143 0 0.77025383710861206
vn 0.63773739337921143 0 0.77025383710861206
f 1/1/1 3/3/3 4/4/4 2/2/2
f 3/3/3 5/5/5 6/6/6 4/4/4
f 5/5/5 7/7/7 8/8/8 6/6/6
f 7/7/7 9/9/9 10/10/10 8/8/8
f 11/11/11 13/13/13 14/14/14 12/12/12
f 15/15/15 17/17/17 18/18/18 16/16/16
f 22/22/22 21/21/21 23/23/23
f 24/24/24 23/23/23 21/21/21
f 19/19/19 24/24/24 20/20/20
f 21/21/21 20/20/20 24/24/24
f 28/28/28 29/29/29 27/27/27
f 30/30/30 27/27/27 29/29/29
f 25/25/25 26/26/26 30/30/30
f 27/27/27 30/30/30 26/26/26
